# xmcd
#
# Track frame offsets:
# 150
# 14410
# 29087
# 43765
# 55822
# 69097
# 82360
# 96037
# 110787
# 125355
# 139920
# 153297
# 170187
# 184497
# 202710
# 216702
#
# Disc length: 3118 seconds
#
#
# Revision: 0
# Processed by: cddbd v1.5.1PL0 Copyright (c) Steve Scherf et al.
# Submitted via: FreeRIP 2.92 
#
DISCID=f40c2c10
DTITLE=Ben Webster - Maestros del Jazz and Blues
DYEAR=1900
DGENRE=
TTITLE0=Frog And Mule
TTITLE1=Blues, Mister Brim
TTITLE2=Doctor Keets
TTITLE3=Park And Tilford Blues
TTITLE4=The Jeep Is Jumpin'
TTITLE5=I Got It Bad
TTITLE6=Dark Corners
TTITLE7=Spang
TTITLE8=Honeysuckle Rose
TTITLE9=Blue Skies
TTITLE10=Kat's Fur
TTITLE11=Memories Of You
TTITLE12=Linger Awhile
TTITLE13=Just A Riff
TTITLE14=Sleep
TTITLE15=Body And Soul
EXTD=
EXTT0=
EXTT1=
EXTT2=
EXTT3=
EXTT4=
EXTT5=
EXTT6=
EXTT7=
EXTT8=
EXTT9=
EXTT10=
EXTT11=
EXTT12=
EXTT13=
EXTT14=
EXTT15=
PLAYORDER=
